HIERARCHY
ROOT Hips
{
    OFFSET   0.000000   0.000000   0.000000
    CHANNELS 6 Xposition Yposition Zposition Zrotation Xrotation Yrotation
    JOINT Chest
    {
        OFFSET   0.000000   8.007230   0.000000
        CHANNELS 3 Zrotation Xrotation Yrotation
        JOINT Chest2
        {
            OFFSET   0.000000  22.077100   0.000000
            CHANNELS 3 Zrotation Xrotation Yrotation
            JOINT Neck
            {
                OFFSET   0.000000  23.254800   0.000000
                CHANNELS 3 Zrotation Xrotation Yrotation
                JOINT Head
                {
                    OFFSET   0.000010  14.370000   1.956600
                    CHANNELS 3 Zrotation Xrotation Yrotation
                    End Site
                    {
                        OFFSET   0.000000  19.566000   0.000000
                    }
                }
            }
            JOINT LeftCollar
            {
                OFFSET   3.911900  19.017000  -0.467062
                CHANNELS 3 Zrotation Xrotation Yrotation
                JOINT LeftShoulder
                {
                    OFFSET  10.383700   0.000000   0.000000
                    CHANNELS 3 Zrotation Xrotation Yrotation
                    JOINT LeftElbow
                    {
                        OFFSET  26.662100   0.001193   0.000835
                        CHANNELS 3 Zrotation Xrotation Yrotation
                        JOINT LeftWrist
                        {
                            OFFSET  28.869000  -0.000058  -0.000075
                            CHANNELS 3 Zrotation Xrotation Yrotation
                            JOINT LeftFinger0
                            {
                                OFFSET   2.044660  -2.323460   3.252850
                                CHANNELS 3 Zrotation Xrotation Yrotation
                                JOINT LeftFinger01
                                {
                                    OFFSET   3.088130   0.000000   0.000000
                                    CHANNELS 3 Zrotation Xrotation Yrotation
                                    JOINT LeftFinger02
                                    {
                                        OFFSET   2.639450   0.000000   0.000000
                                        CHANNELS 3 Zrotation Xrotation Yrotation
                                        End Site
                                        {
                                            OFFSET   2.582190   0.000000   0.000000
                                        }
                                    }
                                }
                            }
                            JOINT LeftFinger1
                            {
                                OFFSET   8.364480   0.000000   3.252850
                                CHANNELS 3 Zrotation Xrotation Yrotation
                                JOINT LeftFinger11
                                {
                                    OFFSET   4.646920   0.000000   0.000000
                                    CHANNELS 3 Zrotation Xrotation Yrotation
                                    JOINT LeftFinger12
                                    {
                                        OFFSET   2.323460   0.000000   0.000000
                                        CHANNELS 3 Zrotation Xrotation Yrotation
                                        End Site
                                        {
                                            OFFSET   2.273050   0.000000   0.000000
                                        }
                                    }
                                }
                            }
                            JOINT LeftFinger2
                            {
                                OFFSET   8.364490   0.000016   1.078090
                                CHANNELS 3 Zrotation Xrotation Yrotation
                                JOINT LeftFinger21
                                {
                                    OFFSET   5.111620   0.000000   0.000000
                                    CHANNELS 3 Zrotation Xrotation Yrotation
                                    JOINT LeftFinger22
                                    {
                                        OFFSET   2.788150   0.000012   0.000000
                                        CHANNELS 3 Zrotation Xrotation Yrotation
                                        End Site
                                        {
                                            OFFSET   2.727660   0.000000   0.000000
                                        }
                                    }
                                }
                            }
                            JOINT LeftFinger3
                            {
                                OFFSET   7.899780   0.000014  -1.078090
                                CHANNELS 3 Zrotation Xrotation Yrotation
                                JOINT LeftFinger31
                                {
                                    OFFSET   4.646930   0.000000   0.000000
                                    CHANNELS 3 Zrotation Xrotation Yrotation
                                    JOINT LeftFinger32
                                    {
                                        OFFSET   2.323470   0.000000   0.000000
                                        CHANNELS 3 Zrotation Xrotation Yrotation
                                        End Site
                                        {
                                            OFFSET   2.273050   0.000000   0.000000
                                        }
                                    }
                                }
                            }
                            JOINT LeftFinger4
                            {
                                OFFSET   7.435090   0.000000  -3.252850
                                CHANNELS 3 Zrotation Xrotation Yrotation
                                JOINT LeftFinger41
                                {
                                    OFFSET   3.717550   0.000000   0.000000
                                    CHANNELS 3 Zrotation Xrotation Yrotation
                                    JOINT LeftFinger42
                                    {
                                        OFFSET   1.858770   0.000000   0.000000
                                        CHANNELS 3 Zrotation Xrotation Yrotation
                                        End Site
                                        {
                                            OFFSET   1.818440   0.000000   0.000000
                                        }
                                    }
                                }
                            }
                        }
                    }
                }
            }
            JOINT RightCollar
            {
                OFFSET  -3.911900  19.017000  -0.467063
                CHANNELS 3 Zrotation Xrotation Yrotation
                JOINT RightShoulder
                {
                    OFFSET -10.383700   0.000023   0.000000
                    CHANNELS 3 Zrotation Xrotation Yrotation
                    JOINT RightElbow
                    {
                        OFFSET -26.662100   0.001246   0.001011
                        CHANNELS 3 Zrotation Xrotation Yrotation
                        JOINT RightWrist
                        {
                            OFFSET -28.869000  -0.000026  -0.000078
                            CHANNELS 3 Zrotation Xrotation Yrotation
                            JOINT RightFinger0
                            {
                                OFFSET  -2.044660  -2.323490   3.252850
                                CHANNELS 3 Zrotation Xrotation Yrotation
                                JOINT RightFinger01
                                {
                                    OFFSET  -3.088130   0.000000   0.000000
                                    CHANNELS 3 Zrotation Xrotation Yrotation
                                    JOINT RightFinger02
                                    {
                                        OFFSET  -2.639460   0.000000   0.000000
                                        CHANNELS 3 Zrotation Xrotation Yrotation
                                        End Site
                                        {
                                            OFFSET  -2.582190   0.000000   0.000000
                                        }
                                    }
                                }
                            }
                            JOINT RightFinger1
                            {
                                OFFSET  -8.364480   0.000000   3.252850
                                CHANNELS 3 Zrotation Xrotation Yrotation
                                JOINT RightFinger11
                                {
                                    OFFSET  -4.646920   0.000000   0.000000
                                    CHANNELS 3 Zrotation Xrotation Yrotation
                                    JOINT RightFinger12
                                    {
                                        OFFSET  -2.323470   0.000000   0.000000
                                        CHANNELS 3 Zrotation Xrotation Yrotation
                                        End Site
                                        {
                                            OFFSET  -2.273050   0.000000   0.000000
                                        }
                                    }
                                }
                            }
                            JOINT RightFinger2
                            {
                                OFFSET  -8.364480   0.000000   1.078090
                                CHANNELS 3 Zrotation Xrotation Yrotation
                                JOINT RightFinger21
                                {
                                    OFFSET  -5.111620   0.000000   0.000000
                                    CHANNELS 3 Zrotation Xrotation Yrotation
                                    JOINT RightFinger22
                                    {
                                        OFFSET  -2.788160   0.000000   0.000000
                                        CHANNELS 3 Zrotation Xrotation Yrotation
                                        End Site
                                        {
                                            OFFSET  -2.727660   0.000000   0.000000
                                        }
                                    }
                                }
                            }
                            JOINT RightFinger3
                            {
                                OFFSET  -7.899780   0.000000  -1.078090
                                CHANNELS 3 Zrotation Xrotation Yrotation
                                JOINT RightFinger31
                                {
                                    OFFSET  -4.646930   0.000000   0.000000
                                    CHANNELS 3 Zrotation Xrotation Yrotation
                                    JOINT RightFinger32
                                    {
                                        OFFSET  -2.323470   0.000000   0.000000
                                        CHANNELS 3 Zrotation Xrotation Yrotation
                                        End Site
                                        {
                                            OFFSET  -2.273050   0.000000   0.000000
                                        }
                                    }
                                }
                            }
                            JOINT RightFinger4
                            {
                                OFFSET  -7.435090   0.000000  -3.252850
                                CHANNELS 3 Zrotation Xrotation Yrotation
                                JOINT RightFinger41
                                {
                                    OFFSET  -3.717550   0.000000   0.000000
                                    CHANNELS 3 Zrotation Xrotation Yrotation
                                    JOINT RightFinger42
                                    {
                                        OFFSET  -1.858760   0.000000   0.000000
                                        CHANNELS 3 Zrotation Xrotation Yrotation
                                        End Site
                                        {
                                            OFFSET  -1.818440   0.000000   0.000000
                                        }
                                    }
                                }
                            }
                        }
                    }
                }
            }
        }
    }
    JOINT LeftHip
    {
        OFFSET   9.783010   0.000000   0.000000
        CHANNELS 3 Zrotation Xrotation Yrotation
        JOINT LeftKnee
        {
            OFFSET   0.000073 -41.789100   0.001749
            CHANNELS 3 Zrotation Xrotation Yrotation
            JOINT LeftAnkle
            {
                OFFSET   0.000111 -41.133200  -0.000179
                CHANNELS 3 Zrotation Xrotation Yrotation
                JOINT LeftToe
                {
                    OFFSET   0.000000  -6.358960  14.674500
                    CHANNELS 3 Zrotation Xrotation Yrotation
                    End Site
                    {
                        OFFSET   0.000000   0.000000   3.913200
                    }
                }
            }
        }
    }
    JOINT RightHip
    {
        OFFSET  -9.783010   0.000000   0.000000
        CHANNELS 3 Zrotation Xrotation Yrotation
        JOINT RightKnee
        {
            OFFSET   0.000424 -41.789200   0.005205
            CHANNELS 3 Zrotation Xrotation Yrotation
            JOINT RightAnkle
            {
                OFFSET   0.000000 -41.133200  -0.000155
                CHANNELS 3 Zrotation Xrotation Yrotation
                JOINT RightToe
                {
                    OFFSET   0.000000  -6.358960  14.674500
                    CHANNELS 3 Zrotation Xrotation Yrotation
                    End Site
                    {
                        OFFSET   0.000000   0.000000   3.913200
                    }
                }
            }
        }
    }
}
MOTION
Frames: 4
Frame Time:   0.016667
  0.368633  89.577700   0.085497  -4.056860 -11.576400  -3.111750   0.499018   6.702050   0.647780   0.930762  13.409100   1.249260   0.546720  -2.136350   0.028472   0.888850  -4.330880   0.113262  -6.621040  -3.318870   0.315758 -72.868500  20.869700   2.059830  -1.638670  -5.819030 -19.571400  13.990000 -11.645400   4.012630  35.643500  32.441300 -55.412300 -39.025700   0.000000   0.005717 -15.772100  -0.003950   0.004979 -25.797800   4.881320  -9.983900 -21.456000   0.000237  -0.002616 -15.019200   0.000257   0.003651 -27.432500  -2.033660   3.910930 -29.210500   0.002048  -0.000460 -19.454200  -0.000947   0.001176 -28.661300  -2.609510   4.761240 -40.088100   0.006455   0.005436 -26.698700   0.000440  -0.002296 -38.228800  -3.365470   4.262680 -57.531500  -0.004310  -0.001994 -38.316000  -0.002929  -0.004767  11.756100  -2.156590   9.243170  70.499900  10.655600  -6.977400  -3.260230  -4.058700  17.226800 -14.857700  -4.915180   2.796490 -34.843300  28.623300  61.735800  34.748900  -0.005865  -0.002395  12.379600  -0.008773  -0.001335  29.242000   6.790870  11.929700  24.504500  -0.000951   0.003702  17.162200  -0.005002   0.002675  28.723800   2.353850   4.288060  43.070700  -0.000176   0.003280  28.685100   0.006202   0.001941  28.649900   2.005720   3.665880  39.283400   0.000853   0.007956  26.162700  -0.001570   0.004620  37.104400  -0.288008  -0.375328  55.658100   0.001719   0.001706  37.068300   0.003208  -0.000222   1.816760  13.499900   5.744680   0.357332   0.088113   1.979600   0.829340  -3.445390   3.983860  -0.000000   0.000000   0.000000   5.412770  10.810300   0.248544  -3.425760   4.965390  -6.851120  -0.481304  -4.837600   1.391210  -0.000000   0.000000   0.000000
  0.365464  89.577700   0.084617  -4.055110 -11.576400  -3.103080   0.499065   6.701840   0.647903   0.930841  13.408700   1.249510   0.542756  -2.122970   0.028468   0.885333  -4.303630   0.134596  -6.620550  -3.314050   0.320637 -72.883000  20.843900   2.054990  -1.643880  -5.923530 -19.564300  13.990400 -11.694800   3.997080  35.426900  32.415900 -56.262200 -39.114700   0.000000   0.005710 -15.784200  -0.003935   0.004986 -25.755800   4.881940  -9.996910 -21.422300   0.000226  -0.002616 -14.995600   0.000237   0.003652 -27.418500  -2.029700   3.905560 -29.140500   0.002016  -0.000457 -19.407600  -0.000992   0.001176 -28.559200  -2.665530   4.887890 -40.634400   0.006471   0.005451 -27.062500   0.000437  -0.002274 -38.459200  -3.469620   4.355940 -57.886600  -0.004249  -0.001922 -38.552500  -0.002960  -0.004727  11.756000  -2.156530   9.243170  70.502200  10.673200  -6.977850  -3.261270  -4.072990  17.227100 -14.857300  -4.922690   2.796470 -34.840200  28.616400  61.735400  34.748700  -0.005863  -0.002389  12.379600  -0.008778  -0.001343  29.239900   6.795910  11.938300  24.504500  -0.000941   0.003690  17.162200  -0.005008   0.002664  28.723200   2.357800   4.295710  43.076900  -0.000170   0.003268  28.689200   0.006196   0.001934  28.649100   2.011710   3.676760  39.292900   0.000860   0.007943  26.169500  -0.001572   0.004614  37.108900  -0.287991  -0.375288  55.664700   0.001732   0.001699  37.072700   0.003200  -0.000226   1.816090  13.502500   5.745120   0.357523   0.080709   1.979660   0.825332  -3.440060   3.977300   0.000000   0.000000   0.000000   5.412470  10.810300   0.248580  -3.425810   4.964950  -6.850930  -0.485201  -4.837370   1.383690  -0.000000   0.000000   0.000000
  0.359807  89.577700   0.082521  -4.052100 -11.576600  -3.088350   0.499112   6.701630   0.648026   0.930921  13.408300   1.249760   0.536628  -2.100750   0.028465   0.880120  -4.258510   0.173476  -6.619840  -3.306090   0.329607 -72.910600  20.798200   2.042440  -1.645430  -6.117500 -19.548200  13.991500 -11.785100   3.966520  35.090700  32.472300 -57.875900 -39.290500   0.000000   0.005703 -15.821300  -0.003920   0.005001 -25.654000   4.886710 -10.057900 -21.341100   0.000185  -0.002615 -14.938800   0.000199   0.003653 -27.398200  -2.012460   3.875760 -29.036400   0.001944  -0.000448 -19.338200  -0.001103   0.001178 -28.451000  -2.756810   5.072720 -41.634000   0.006514   0.005490 -27.728200   0.000430  -0.002226 -38.843100  -3.628100   4.492200 -58.477800  -0.004146  -0.001764 -38.946200  -0.003028  -0.004640  11.755700  -2.156400   9.243180  70.504400  10.690800  -6.978300  -3.264890  -4.087840  17.227400 -14.856800  -4.933300   2.796420 -34.833900  28.602800  61.734500  34.748600  -0.005855  -0.002378  12.379500  -0.008789  -0.001353  29.237000   6.803970  11.950900  24.504500  -0.000916   0.003660  17.162200  -0.005025   0.002637  28.722300   2.364220   4.307010  43.087900  -0.000150   0.003236  28.696600   0.006185   0.001911  28.648300   2.018230   3.688620  39.305100   0.000882   0.007913  26.177200  -0.001575   0.004595  37.115600  -0.287953  -0.375220  55.674900   0.001765   0.001679  37.079500   0.003180  -0.000237   1.814800  13.511000   5.745700   0.357712   0.062100   1.979800   0.819195  -3.427730   3.965520   0.000000   0.000000   0.000000   5.412160  10.810300   0.248615  -3.425780   4.964510  -6.850750  -0.492082  -4.837140   1.373100   0.000000   0.000000   0.000000
  0.354359  89.577700   0.079510  -4.049830 -11.581000  -3.076260   0.499156   6.701660   0.647514   0.931079  13.408400   1.248720   0.531939  -2.082330   0.028465   0.876259  -4.221330   0.211529  -6.619440  -3.300000   0.338187 -72.938300  20.757900   2.023140  -1.628290  -6.292830 -19.518600  14.035100 -11.899600   3.933840  34.903200  32.790300 -59.780300 -39.506700  -0.000032   0.005710 -15.893800  -0.003956   0.005021 -25.487300   4.925770 -10.210800 -21.213100   0.000100  -0.002603 -14.849200   0.000160   0.003656 -27.391800  -1.963340   3.783370 -28.989900   0.001843  -0.000436 -19.307200  -0.001269   0.001181 -28.525700  -2.811420   5.156570 -42.599900   0.006580   0.005549 -28.371100   0.000419  -0.002159 -39.129300  -3.711620   4.550880 -58.915200  -0.004044  -0.001541 -39.237500  -0.003124  -0.004518  11.755600  -2.156220   9.245820  70.500900  10.687200  -6.978150  -3.268630  -4.088360  17.233000 -14.856700  -4.936370   2.796300 -34.828400  28.587100  61.732600  34.749100  -0.005833  -0.002366  12.379500  -0.008804  -0.001355  29.236400   6.810640  11.958400  24.505800  -0.000880   0.003610  17.162200  -0.005052   0.002600  28.721500   2.370130   4.313940  43.099000  -0.000117   0.003185  28.704000   0.006169   0.001871  28.648100   2.018860   3.689760  39.307400   0.000922   0.007873  26.177800  -0.001579   0.004559  37.119700  -0.287901  -0.375149  55.681000   0.001815   0.001648  37.083500   0.003147  -0.000261   1.814950  13.529800   5.744510   0.357310   0.024681   1.980040   0.815560  -3.407520   3.954010  -0.000000   0.000000   0.000000   5.413620  10.810100   0.243219  -3.424490   4.969800  -6.851810  -0.498692  -4.840620   1.369570  -0.000000   0.000000   0.000000
